<svg xmlns="http://www.w3.org/2000/svg" viewBox="0 0 662 209" width="662" height="209" role="img" aria-label="coachpa.ge">
  <rect width="662" height="209" fill="#0B1F3A"/>
  <path d="M628 -22Q459 -22 336.5 50.5Q214 123 147.5 252.5Q81 382 81 554Q81 728 147.5 857.5Q214 987 336.5 1059.5Q459 1132 628 1132Q727 1132 811.0 1106.0Q895 1080 960.0 1032.0Q1025 984 1067.0 915.0Q1109 846 1125 760L846 708Q837 752 818.0 786.5Q799 821 772.0 845.5Q745 870 709.5 883.0Q674 896 631 896Q551 896 496.5 853.0Q442 810 414.5 733.0Q387 656 387 555Q387 456 414.5 379.0Q442 302 496.5 258.0Q551 214 631 214Q674 214 710.0 227.5Q746 241 774.0 266.5Q802 292 821.0 328.0Q840 364 848 409L1127 358Q1111 269 1069.0 199.5Q1027 130 962.0 80.0Q897 30 812.5 4.0Q728 -22 628 -22Z" fill="#F5F2EC" transform="translate(40.00 142.60) scale(0.0527 -0.0527)"/>
  <path d="M628 -22Q460 -22 337.0 50.5Q214 123 147.5 252.5Q81 382 81 554Q81 728 147.5 857.5Q214 987 337.0 1059.5Q460 1132 628 1132Q797 1132 919.5 1059.5Q1042 987 1108.5 857.5Q1175 728 1175 554Q1175 382 1108.5 252.5Q1042 123 919.5 50.5Q797 -22 628 -22ZM628 214Q708 214 762.0 258.5Q816 303 843.0 380.5Q870 458 870 555Q870 654 843.0 731.0Q816 808 762.0 852.0Q708 896 628 896Q548 896 494.5 852.0Q441 808 414.0 731.0Q387 654 387 555Q387 458 414.0 380.5Q441 303 494.5 258.5Q548 214 628 214Z" fill="#F5F2EC" transform="translate(99.04 142.60) scale(0.0527 -0.0527)"/>
  <path d="M440 -22Q334 -22 249.5 15.5Q165 53 116.5 127.5Q68 202 68 313Q68 406 102.5 469.0Q137 532 196.5 570.0Q256 608 331.5 628.0Q407 648 490 656Q587 666 646.5 674.5Q706 683 733.5 701.5Q761 720 761 756V761Q761 809 741.0 842.0Q721 875 681.5 892.5Q642 910 586 910Q528 910 485.0 892.5Q442 875 415.0 846.0Q388 817 375 781L100 826Q129 924 196.0 992.0Q263 1060 362.5 1096.0Q462 1132 587 1132Q677 1132 762.0 1110.5Q847 1089 914.5 1044.0Q982 999 1021.5 926.5Q1061 854 1061 753V0H777V155H767Q740 103 695.0 63.5Q650 24 586.5 1.0Q523 -22 440 -22ZM525 189Q596 189 649.5 217.0Q703 245 733.0 293.0Q763 341 763 400V521Q750 511 723.0 503.0Q696 495 663.0 489.0Q630 483 598.0 478.0Q566 473 541 470Q486 462 444.0 444.0Q402 426 379.0 396.5Q356 367 356 321Q356 278 378.0 248.5Q400 219 438.0 204.0Q476 189 525 189Z" fill="#F5F2EC" transform="translate(160.78 142.60) scale(0.0527 -0.0527)"/>
  <path d="M628 -22Q459 -22 336.5 50.5Q214 123 147.5 252.5Q81 382 81 554Q81 728 147.5 857.5Q214 987 336.5 1059.5Q459 1132 628 1132Q727 1132 811.0 1106.0Q895 1080 960.0 1032.0Q1025 984 1067.0 915.0Q1109 846 1125 760L846 708Q837 752 818.0 786.5Q799 821 772.0 845.5Q745 870 709.5 883.0Q674 896 631 896Q551 896 496.5 853.0Q442 810 414.5 733.0Q387 656 387 555Q387 456 414.5 379.0Q442 302 496.5 258.0Q551 214 631 214Q674 214 710.0 227.5Q746 241 774.0 266.5Q802 292 821.0 328.0Q840 364 848 409L1127 358Q1111 269 1069.0 199.5Q1027 130 962.0 80.0Q897 30 812.5 4.0Q728 -22 628 -22Z" fill="#F5F2EC" transform="translate(218.98 142.60) scale(0.0527 -0.0527)"/>
  <path d="M428 647V0H128V1490H422V839H398Q442 979 531.5 1055.5Q621 1132 763 1132Q879 1132 965.5 1081.5Q1052 1031 1100.0 936.5Q1148 842 1148 711V0H847V659Q847 763 793.5 822.0Q740 881 645 881Q582 881 532.5 853.5Q483 826 455.5 774.0Q428 722 428 647Z" fill="#F5F2EC" transform="translate(278.03 142.60) scale(0.0527 -0.0527)"/>
  <path d="M128 -418V1118H423V930H437Q458 974 496.5 1021.0Q535 1068 598.0 1100.0Q661 1132 756 1132Q880 1132 983.0 1068.0Q1086 1004 1147.5 876.0Q1209 748 1209 557Q1209 371 1149.0 242.5Q1089 114 986.0 47.5Q883 -19 754 -19Q663 -19 600.0 12.0Q537 43 497.5 88.5Q458 134 437 179H428V-418ZM662 222Q740 222 793.5 265.0Q847 308 874.5 384.0Q902 460 902 558Q902 656 874.5 731.0Q847 806 794.0 849.0Q741 892 662 892Q585 892 531.0 850.5Q477 809 449.0 734.5Q421 660 421 558Q421 457 449.5 381.5Q478 306 532.0 264.0Q586 222 662 222Z" fill="#F5F2EC" transform="translate(340.76 142.60) scale(0.0527 -0.0527)"/>
  <path d="M440 -22Q334 -22 249.5 15.5Q165 53 116.5 127.5Q68 202 68 313Q68 406 102.5 469.0Q137 532 196.5 570.0Q256 608 331.5 628.0Q407 648 490 656Q587 666 646.5 674.5Q706 683 733.5 701.5Q761 720 761 756V761Q761 809 741.0 842.0Q721 875 681.5 892.5Q642 910 586 910Q528 910 485.0 892.5Q442 875 415.0 846.0Q388 817 375 781L100 826Q129 924 196.0 992.0Q263 1060 362.5 1096.0Q462 1132 587 1132Q677 1132 762.0 1110.5Q847 1089 914.5 1044.0Q982 999 1021.5 926.5Q1061 854 1061 753V0H777V155H767Q740 103 695.0 63.5Q650 24 586.5 1.0Q523 -22 440 -22ZM525 189Q596 189 649.5 217.0Q703 245 733.0 293.0Q763 341 763 400V521Q750 511 723.0 503.0Q696 495 663.0 489.0Q630 483 598.0 478.0Q566 473 541 470Q486 462 444.0 444.0Q402 426 379.0 396.5Q356 367 356 321Q356 278 378.0 248.5Q400 219 438.0 204.0Q476 189 525 189Z" fill="#F5F2EC" transform="translate(404.34 142.60) scale(0.0527 -0.0527)"/>
  <path d="M342 -19Q269 -19 219.0 30.5Q169 80 169 153Q169 226 219.0 275.5Q269 325 342 325Q415 325 465.0 275.5Q515 226 515 153Q515 80 465.0 30.5Q415 -19 342 -19Z" fill="#E5A11C" transform="translate(462.54 142.60) scale(0.0527 -0.0527)"/>
  <path d="M625 -442Q485 -442 381.0 -406.5Q277 -371 212.0 -309.0Q147 -247 122 -168L380 -96Q394 -127 423.5 -156.5Q453 -186 502.0 -205.0Q551 -224 623 -224Q738 -224 803.5 -171.5Q869 -119 869 -8V198H846Q826 153 788.0 111.0Q750 69 688.5 42.5Q627 16 536 16Q410 16 307.0 75.0Q204 134 142.5 255.0Q81 376 81 561Q81 750 143.5 877.0Q206 1004 309.5 1068.0Q413 1132 537 1132Q631 1132 695.0 1100.5Q759 1069 798.5 1021.5Q838 974 858 930H871V1118H1166V9Q1166 -142 1096.5 -242.0Q1027 -342 905.0 -392.0Q783 -442 625 -442ZM630 244Q707 244 760.5 282.0Q814 320 842.0 391.5Q870 463 870 563Q870 662 842.0 736.0Q814 810 760.5 851.0Q707 892 630 892Q551 892 497.5 849.5Q444 807 416.5 733.0Q389 659 389 563Q389 465 416.5 393.5Q444 322 498.0 283.0Q552 244 630 244Z" fill="#E5A11C" transform="translate(494.11 142.60) scale(0.0527 -0.0527)"/>
  <path d="M633 -22Q462 -22 338.0 48.0Q214 118 147.5 247.0Q81 376 81 553Q81 726 147.0 856.0Q213 986 334.0 1059.0Q455 1132 618 1132Q728 1132 823.0 1097.0Q918 1062 990.0 991.5Q1062 921 1102.5 815.0Q1143 709 1143 565V481H204V669H996L856 619Q856 706 829.5 770.5Q803 835 750.5 870.5Q698 906 621 906Q543 906 488.5 870.0Q434 834 406.0 772.5Q378 711 378 632V499Q378 402 410.5 336.0Q443 270 501.5 237.0Q560 204 638 204Q691 204 734.0 219.0Q777 234 807.5 263.5Q838 293 854 336L1126 285Q1099 193 1032.0 123.5Q965 54 864.5 16.0Q764 -22 633 -22Z" fill="#E5A11C" transform="translate(557.85 142.60) scale(0.0527 -0.0527)"/>
</svg>