<svg xmlns="http://www.w3.org/2000/svg" viewBox="0 0 32 32" width="32" height="32" role="img" aria-label="coachpa.ge favicon">
  <rect width="32" height="32" rx="6" ry="6" fill="#0B1F3A"/>
  <path d="M342 -19Q269 -19 219.0 30.5Q169 80 169 153Q169 226 219.0 275.5Q269 325 342 325Q415 325 465.0 275.5Q515 226 515 153Q515 80 465.0 30.5Q415 -19 342 -19Z" fill="#E5A11C" transform="translate(1.95 24.00) scale(0.0088 -0.0088)"/>
  <path d="M625 -442Q485 -442 381.0 -406.5Q277 -371 212.0 -309.0Q147 -247 122 -168L380 -96Q394 -127 423.5 -156.5Q453 -186 502.0 -205.0Q551 -224 623 -224Q738 -224 803.5 -171.5Q869 -119 869 -8V198H846Q826 153 788.0 111.0Q750 69 688.5 42.5Q627 16 536 16Q410 16 307.0 75.0Q204 134 142.5 255.0Q81 376 81 561Q81 750 143.5 877.0Q206 1004 309.5 1068.0Q413 1132 537 1132Q631 1132 695.0 1100.5Q759 1069 798.5 1021.5Q838 974 858 930H871V1118H1166V9Q1166 -142 1096.5 -242.0Q1027 -342 905.0 -392.0Q783 -442 625 -442ZM630 244Q707 244 760.5 282.0Q814 320 842.0 391.5Q870 463 870 563Q870 662 842.0 736.0Q814 810 760.5 851.0Q707 892 630 892Q551 892 497.5 849.5Q444 807 416.5 733.0Q389 659 389 563Q389 465 416.5 393.5Q444 322 498.0 283.0Q552 244 630 244Z" fill="#E5A11C" transform="translate(7.96 24.00) scale(0.0088 -0.0088)"/>
  <path d="M633 -22Q462 -22 338.0 48.0Q214 118 147.5 247.0Q81 376 81 553Q81 726 147.0 856.0Q213 986 334.0 1059.0Q455 1132 618 1132Q728 1132 823.0 1097.0Q918 1062 990.0 991.5Q1062 921 1102.5 815.0Q1143 709 1143 565V481H204V669H996L856 619Q856 706 829.5 770.5Q803 835 750.5 870.5Q698 906 621 906Q543 906 488.5 870.0Q434 834 406.0 772.5Q378 711 378 632V499Q378 402 410.5 336.0Q443 270 501.5 237.0Q560 204 638 204Q691 204 734.0 219.0Q777 234 807.5 263.5Q838 293 854 336L1126 285Q1099 193 1032.0 123.5Q965 54 864.5 16.0Q764 -22 633 -22Z" fill="#E5A11C" transform="translate(19.33 24.00) scale(0.0088 -0.0088)"/>
</svg>