<svg xmlns="http://www.w3.org/2000/svg" viewBox="0 0 1200 630" width="1200" height="630" role="img" aria-label="coachpa.ge — the online CV for football coaches">
  <rect width="1200" height="630" fill="#0B1F3A"/>
  <rect x="0" y="0" width="1200" height="6" fill="#E5A11C"/>
  <rect x="0" y="624" width="1200" height="6" fill="#E5A11C"/>
  <path d="M628 -22Q459 -22 336.5 50.5Q214 123 147.5 252.5Q81 382 81 554Q81 728 147.5 857.5Q214 987 336.5 1059.5Q459 1132 628 1132Q727 1132 811.0 1106.0Q895 1080 960.0 1032.0Q1025 984 1067.0 915.0Q1109 846 1125 760L846 708Q837 752 818.0 786.5Q799 821 772.0 845.5Q745 870 709.5 883.0Q674 896 631 896Q551 896 496.5 853.0Q442 810 414.5 733.0Q387 656 387 555Q387 456 414.5 379.0Q442 302 496.5 258.0Q551 214 631 214Q674 214 710.0 227.5Q746 241 774.0 266.5Q802 292 821.0 328.0Q840 364 848 409L1127 358Q1111 269 1069.0 199.5Q1027 130 962.0 80.0Q897 30 812.5 4.0Q728 -22 628 -22Z" fill="#F5F2EC" transform="translate(219.47 310.00) scale(0.0645 -0.0645)"/>
  <path d="M628 -22Q460 -22 337.0 50.5Q214 123 147.5 252.5Q81 382 81 554Q81 728 147.5 857.5Q214 987 337.0 1059.5Q460 1132 628 1132Q797 1132 919.5 1059.5Q1042 987 1108.5 857.5Q1175 728 1175 554Q1175 382 1108.5 252.5Q1042 123 919.5 50.5Q797 -22 628 -22ZM628 214Q708 214 762.0 258.5Q816 303 843.0 380.5Q870 458 870 555Q870 654 843.0 731.0Q816 808 762.0 852.0Q708 896 628 896Q548 896 494.5 852.0Q441 808 414.0 731.0Q387 654 387 555Q387 458 414.0 380.5Q441 303 494.5 258.5Q548 214 628 214Z" fill="#F5F2EC" transform="translate(297.13 310.00) scale(0.0645 -0.0645)"/>
  <path d="M440 -22Q334 -22 249.5 15.5Q165 53 116.5 127.5Q68 202 68 313Q68 406 102.5 469.0Q137 532 196.5 570.0Q256 608 331.5 628.0Q407 648 490 656Q587 666 646.5 674.5Q706 683 733.5 701.5Q761 720 761 756V761Q761 809 741.0 842.0Q721 875 681.5 892.5Q642 910 586 910Q528 910 485.0 892.5Q442 875 415.0 846.0Q388 817 375 781L100 826Q129 924 196.0 992.0Q263 1060 362.5 1096.0Q462 1132 587 1132Q677 1132 762.0 1110.5Q847 1089 914.5 1044.0Q982 999 1021.5 926.5Q1061 854 1061 753V0H777V155H767Q740 103 695.0 63.5Q650 24 586.5 1.0Q523 -22 440 -22ZM525 189Q596 189 649.5 217.0Q703 245 733.0 293.0Q763 341 763 400V521Q750 511 723.0 503.0Q696 495 663.0 489.0Q630 483 598.0 478.0Q566 473 541 470Q486 462 444.0 444.0Q402 426 379.0 396.5Q356 367 356 321Q356 278 378.0 248.5Q400 219 438.0 204.0Q476 189 525 189Z" fill="#F5F2EC" transform="translate(378.09 310.00) scale(0.0645 -0.0645)"/>
  <path d="M628 -22Q459 -22 336.5 50.5Q214 123 147.5 252.5Q81 382 81 554Q81 728 147.5 857.5Q214 987 336.5 1059.5Q459 1132 628 1132Q727 1132 811.0 1106.0Q895 1080 960.0 1032.0Q1025 984 1067.0 915.0Q1109 846 1125 760L846 708Q837 752 818.0 786.5Q799 821 772.0 845.5Q745 870 709.5 883.0Q674 896 631 896Q551 896 496.5 853.0Q442 810 414.5 733.0Q387 656 387 555Q387 456 414.5 379.0Q442 302 496.5 258.0Q551 214 631 214Q674 214 710.0 227.5Q746 241 774.0 266.5Q802 292 821.0 328.0Q840 364 848 409L1127 358Q1111 269 1069.0 199.5Q1027 130 962.0 80.0Q897 30 812.5 4.0Q728 -22 628 -22Z" fill="#F5F2EC" transform="translate(454.72 310.00) scale(0.0645 -0.0645)"/>
  <path d="M428 647V0H128V1490H422V839H398Q442 979 531.5 1055.5Q621 1132 763 1132Q879 1132 965.5 1081.5Q1052 1031 1100.0 936.5Q1148 842 1148 711V0H847V659Q847 763 793.5 822.0Q740 881 645 881Q582 881 532.5 853.5Q483 826 455.5 774.0Q428 722 428 647Z" fill="#F5F2EC" transform="translate(532.39 310.00) scale(0.0645 -0.0645)"/>
  <path d="M128 -418V1118H423V930H437Q458 974 496.5 1021.0Q535 1068 598.0 1100.0Q661 1132 756 1132Q880 1132 983.0 1068.0Q1086 1004 1147.5 876.0Q1209 748 1209 557Q1209 371 1149.0 242.5Q1089 114 986.0 47.5Q883 -19 754 -19Q663 -19 600.0 12.0Q537 43 497.5 88.5Q458 134 437 179H428V-418ZM662 222Q740 222 793.5 265.0Q847 308 874.5 384.0Q902 460 902 558Q902 656 874.5 731.0Q847 806 794.0 849.0Q741 892 662 892Q585 892 531.0 850.5Q477 809 449.0 734.5Q421 660 421 558Q421 457 449.5 381.5Q478 306 532.0 264.0Q586 222 662 222Z" fill="#F5F2EC" transform="translate(614.57 310.00) scale(0.0645 -0.0645)"/>
  <path d="M440 -22Q334 -22 249.5 15.5Q165 53 116.5 127.5Q68 202 68 313Q68 406 102.5 469.0Q137 532 196.5 570.0Q256 608 331.5 628.0Q407 648 490 656Q587 666 646.5 674.5Q706 683 733.5 701.5Q761 720 761 756V761Q761 809 741.0 842.0Q721 875 681.5 892.5Q642 910 586 910Q528 910 485.0 892.5Q442 875 415.0 846.0Q388 817 375 781L100 826Q129 924 196.0 992.0Q263 1060 362.5 1096.0Q462 1132 587 1132Q677 1132 762.0 1110.5Q847 1089 914.5 1044.0Q982 999 1021.5 926.5Q1061 854 1061 753V0H777V155H767Q740 103 695.0 63.5Q650 24 586.5 1.0Q523 -22 440 -22ZM525 189Q596 189 649.5 217.0Q703 245 733.0 293.0Q763 341 763 400V521Q750 511 723.0 503.0Q696 495 663.0 489.0Q630 483 598.0 478.0Q566 473 541 470Q486 462 444.0 444.0Q402 426 379.0 396.5Q356 367 356 321Q356 278 378.0 248.5Q400 219 438.0 204.0Q476 189 525 189Z" fill="#F5F2EC" transform="translate(697.78 310.00) scale(0.0645 -0.0645)"/>
  <path d="M342 -19Q269 -19 219.0 30.5Q169 80 169 153Q169 226 219.0 275.5Q269 325 342 325Q415 325 465.0 275.5Q515 226 515 153Q515 80 465.0 30.5Q415 -19 342 -19Z" fill="#E5A11C" transform="translate(774.41 310.00) scale(0.0645 -0.0645)"/>
  <path d="M625 -442Q485 -442 381.0 -406.5Q277 -371 212.0 -309.0Q147 -247 122 -168L380 -96Q394 -127 423.5 -156.5Q453 -186 502.0 -205.0Q551 -224 623 -224Q738 -224 803.5 -171.5Q869 -119 869 -8V198H846Q826 153 788.0 111.0Q750 69 688.5 42.5Q627 16 536 16Q410 16 307.0 75.0Q204 134 142.5 255.0Q81 376 81 561Q81 750 143.5 877.0Q206 1004 309.5 1068.0Q413 1132 537 1132Q631 1132 695.0 1100.5Q759 1069 798.5 1021.5Q838 974 858 930H871V1118H1166V9Q1166 -142 1096.5 -242.0Q1027 -342 905.0 -392.0Q783 -442 625 -442ZM630 244Q707 244 760.5 282.0Q814 320 842.0 391.5Q870 463 870 563Q870 662 842.0 736.0Q814 810 760.5 851.0Q707 892 630 892Q551 892 497.5 849.5Q444 807 416.5 733.0Q389 659 389 563Q389 465 416.5 393.5Q444 322 498.0 283.0Q552 244 630 244Z" fill="#E5A11C" transform="translate(818.50 310.00) scale(0.0645 -0.0645)"/>
  <path d="M633 -22Q462 -22 338.0 48.0Q214 118 147.5 247.0Q81 376 81 553Q81 726 147.0 856.0Q213 986 334.0 1059.0Q455 1132 618 1132Q728 1132 823.0 1097.0Q918 1062 990.0 991.5Q1062 921 1102.5 815.0Q1143 709 1143 565V481H204V669H996L856 619Q856 706 829.5 770.5Q803 835 750.5 870.5Q698 906 621 906Q543 906 488.5 870.0Q434 834 406.0 772.5Q378 711 378 632V499Q378 402 410.5 336.0Q443 270 501.5 237.0Q560 204 638 204Q691 204 734.0 219.0Q777 234 807.5 263.5Q838 293 854 336L1126 285Q1099 193 1032.0 123.5Q965 54 864.5 16.0Q764 -22 633 -22Z" fill="#E5A11C" transform="translate(901.90 310.00) scale(0.0645 -0.0645)"/>
  <path d="M75 1237V1490H1292V1237H837V0H531V1237Z" fill="#F5F2EC" transform="translate(359.24 358.00) scale(0.0137 -0.0137)"/>
  <path d="M428 647V0H128V1490H422V839H398Q442 979 531.5 1055.5Q621 1132 763 1132Q879 1132 965.5 1081.5Q1052 1031 1100.0 936.5Q1148 842 1148 711V0H847V659Q847 763 793.5 822.0Q740 881 645 881Q582 881 532.5 853.5Q483 826 455.5 774.0Q428 722 428 647Z" fill="#F5F2EC" transform="translate(377.93 358.00) scale(0.0137 -0.0137)"/>
  <path d="M633 -22Q462 -22 338.0 48.0Q214 118 147.5 247.0Q81 376 81 553Q81 726 147.0 856.0Q213 986 334.0 1059.0Q455 1132 618 1132Q728 1132 823.0 1097.0Q918 1062 990.0 991.5Q1062 921 1102.5 815.0Q1143 709 1143 565V481H204V669H996L856 619Q856 706 829.5 770.5Q803 835 750.5 870.5Q698 906 621 906Q543 906 488.5 870.0Q434 834 406.0 772.5Q378 711 378 632V499Q378 402 410.5 336.0Q443 270 501.5 237.0Q560 204 638 204Q691 204 734.0 219.0Q777 234 807.5 263.5Q838 293 854 336L1126 285Q1099 193 1032.0 123.5Q965 54 864.5 16.0Q764 -22 633 -22Z" fill="#F5F2EC" transform="translate(395.36 358.00) scale(0.0137 -0.0137)"/>
  <path d="M628 -22Q460 -22 337.0 50.5Q214 123 147.5 252.5Q81 382 81 554Q81 728 147.5 857.5Q214 987 337.0 1059.5Q460 1132 628 1132Q797 1132 919.5 1059.5Q1042 987 1108.5 857.5Q1175 728 1175 554Q1175 382 1108.5 252.5Q1042 123 919.5 50.5Q797 -22 628 -22ZM628 214Q708 214 762.0 258.5Q816 303 843.0 380.5Q870 458 870 555Q870 654 843.0 731.0Q816 808 762.0 852.0Q708 896 628 896Q548 896 494.5 852.0Q441 808 414.0 731.0Q387 654 387 555Q387 458 414.0 380.5Q441 303 494.5 258.5Q548 214 628 214Z" fill="#F5F2EC" transform="translate(418.67 358.00) scale(0.0137 -0.0137)"/>
  <path d="M428 647V0H128V1118H411L416 839H398Q442 979 531.5 1055.5Q621 1132 763 1132Q879 1132 965.5 1081.5Q1052 1031 1099.5 936.5Q1147 842 1147 711V0H847V659Q847 763 793.5 822.0Q740 881 645 881Q582 881 532.5 853.5Q483 826 455.5 774.0Q428 722 428 647Z" fill="#F5F2EC" transform="translate(435.84 358.00) scale(0.0137 -0.0137)"/>
  <path d="M428 1490V0H128V1490Z" fill="#F5F2EC" transform="translate(453.27 358.00) scale(0.0137 -0.0137)"/>
  <path d="M128 0V1118H428V0ZM278 1264Q210 1264 162.0 1309.0Q114 1354 114 1418Q114 1482 162.0 1527.0Q210 1572 278 1572Q346 1572 394.5 1527.5Q443 1483 443 1418Q443 1354 394.5 1309.0Q346 1264 278 1264Z" fill="#F5F2EC" transform="translate(460.86 358.00) scale(0.0137 -0.0137)"/>
  <path d="M428 647V0H128V1118H411L416 839H398Q442 979 531.5 1055.5Q621 1132 763 1132Q879 1132 965.5 1081.5Q1052 1031 1099.5 936.5Q1147 842 1147 711V0H847V659Q847 763 793.5 822.0Q740 881 645 881Q582 881 532.5 853.5Q483 826 455.5 774.0Q428 722 428 647Z" fill="#F5F2EC" transform="translate(468.45 358.00) scale(0.0137 -0.0137)"/>
  <path d="M633 -22Q462 -22 338.0 48.0Q214 118 147.5 247.0Q81 376 81 553Q81 726 147.0 856.0Q213 986 334.0 1059.0Q455 1132 618 1132Q728 1132 823.0 1097.0Q918 1062 990.0 991.5Q1062 921 1102.5 815.0Q1143 709 1143 565V481H204V669H996L856 619Q856 706 829.5 770.5Q803 835 750.5 870.5Q698 906 621 906Q543 906 488.5 870.0Q434 834 406.0 772.5Q378 711 378 632V499Q378 402 410.5 336.0Q443 270 501.5 237.0Q560 204 638 204Q691 204 734.0 219.0Q777 234 807.5 263.5Q838 293 854 336L1126 285Q1099 193 1032.0 123.5Q965 54 864.5 16.0Q764 -22 633 -22Z" fill="#F5F2EC" transform="translate(485.88 358.00) scale(0.0137 -0.0137)"/>
  <path d="M786 -20Q588 -20 431.5 70.0Q275 160 184.5 331.0Q94 502 94 744Q94 987 185.0 1158.5Q276 1330 433.0 1420.0Q590 1510 786 1510Q913 1510 1022.5 1474.5Q1132 1439 1217.0 1371.0Q1302 1303 1356.0 1204.5Q1410 1106 1427 980H1118Q1108 1042 1079.5 1089.5Q1051 1137 1008.5 1170.5Q966 1204 911.0 1221.5Q856 1239 792 1239Q676 1239 588.5 1181.0Q501 1123 452.5 1012.5Q404 902 404 744Q404 583 453.0 473.0Q502 363 589.0 307.0Q676 251 791 251Q855 251 909.5 268.5Q964 286 1007.5 319.5Q1051 353 1079.5 401.0Q1108 449 1119 510H1428Q1416 406 1366.5 311.0Q1317 216 1235.0 141.0Q1153 66 1040.0 23.0Q927 -20 786 -20Z" fill="#F5F2EC" transform="translate(509.19 358.00) scale(0.0137 -0.0137)"/>
  <path d="M571 0 49 1490H388L626 771Q669 635 713.0 471.5Q757 308 806 114H740Q788 310 830.0 472.5Q872 635 913 771L1143 1490H1480L970 0Z" fill="#F5F2EC" transform="translate(529.90 358.00) scale(0.0137 -0.0137)"/>
  <path d="M750 1118V889H20V1118ZM217 0V1204Q217 1323 264.5 1402.0Q312 1481 394.0 1520.5Q476 1560 580 1560Q651 1560 709.5 1548.5Q768 1537 795 1529L741 1303Q722 1308 696.5 1313.0Q671 1318 641 1318Q573 1318 544.5 1285.5Q516 1253 516 1194V0Z" fill="#F5F2EC" transform="translate(557.44 358.00) scale(0.0137 -0.0137)"/>
  <path d="M628 -22Q460 -22 337.0 50.5Q214 123 147.5 252.5Q81 382 81 554Q81 728 147.5 857.5Q214 987 337.0 1059.5Q460 1132 628 1132Q797 1132 919.5 1059.5Q1042 987 1108.5 857.5Q1175 728 1175 554Q1175 382 1108.5 252.5Q1042 123 919.5 50.5Q797 -22 628 -22ZM628 214Q708 214 762.0 258.5Q816 303 843.0 380.5Q870 458 870 555Q870 654 843.0 731.0Q816 808 762.0 852.0Q708 896 628 896Q548 896 494.5 852.0Q441 808 414.0 731.0Q387 654 387 555Q387 458 414.0 380.5Q441 303 494.5 258.5Q548 214 628 214Z" fill="#F5F2EC" transform="translate(568.58 358.00) scale(0.0137 -0.0137)"/>
  <path d="M128 0V1118H418V923H430Q461 1027 533.5 1080.0Q606 1133 700 1133Q723 1133 750.0 1130.5Q777 1128 797 1123V855Q777 862 739.0 866.0Q701 870 667 870Q599 870 544.0 840.5Q489 811 458.5 758.5Q428 706 428 636V0Z" fill="#F5F2EC" transform="translate(585.75 358.00) scale(0.0137 -0.0137)"/>
  <path d="M750 1118V889H20V1118ZM217 0V1204Q217 1323 264.5 1402.0Q312 1481 394.0 1520.5Q476 1560 580 1560Q651 1560 709.5 1548.5Q768 1537 795 1529L741 1303Q722 1308 696.5 1313.0Q671 1318 641 1318Q573 1318 544.5 1285.5Q516 1253 516 1194V0Z" fill="#F5F2EC" transform="translate(603.79 358.00) scale(0.0137 -0.0137)"/>
  <path d="M628 -22Q460 -22 337.0 50.5Q214 123 147.5 252.5Q81 382 81 554Q81 728 147.5 857.5Q214 987 337.0 1059.5Q460 1132 628 1132Q797 1132 919.5 1059.5Q1042 987 1108.5 857.5Q1175 728 1175 554Q1175 382 1108.5 252.5Q1042 123 919.5 50.5Q797 -22 628 -22ZM628 214Q708 214 762.0 258.5Q816 303 843.0 380.5Q870 458 870 555Q870 654 843.0 731.0Q816 808 762.0 852.0Q708 896 628 896Q548 896 494.5 852.0Q441 808 414.0 731.0Q387 654 387 555Q387 458 414.0 380.5Q441 303 494.5 258.5Q548 214 628 214Z" fill="#F5F2EC" transform="translate(614.93 358.00) scale(0.0137 -0.0137)"/>
  <path d="M628 -22Q460 -22 337.0 50.5Q214 123 147.5 252.5Q81 382 81 554Q81 728 147.5 857.5Q214 987 337.0 1059.5Q460 1132 628 1132Q797 1132 919.5 1059.5Q1042 987 1108.5 857.5Q1175 728 1175 554Q1175 382 1108.5 252.5Q1042 123 919.5 50.5Q797 -22 628 -22ZM628 214Q708 214 762.0 258.5Q816 303 843.0 380.5Q870 458 870 555Q870 654 843.0 731.0Q816 808 762.0 852.0Q708 896 628 896Q548 896 494.5 852.0Q441 808 414.0 731.0Q387 654 387 555Q387 458 414.0 380.5Q441 303 494.5 258.5Q548 214 628 214Z" fill="#F5F2EC" transform="translate(632.10 358.00) scale(0.0137 -0.0137)"/>
  <path d="M683 1118V889H20V1118ZM174 1384H474V327Q474 274 497.5 248.5Q521 223 576 223Q593 223 624.0 227.5Q655 232 671 236L714 11Q664 -4 614.5 -10.0Q565 -16 520 -16Q352 -16 263.0 66.0Q174 148 174 301Z" fill="#F5F2EC" transform="translate(649.27 358.00) scale(0.0137 -0.0137)"/>
  <path d="M754 -19Q663 -19 600.0 12.0Q537 43 497.5 88.5Q458 134 437 179H423V0H128V1490H428V930H437Q458 974 496.5 1021.0Q535 1068 598.0 1100.0Q661 1132 756 1132Q880 1132 983.0 1068.0Q1086 1004 1147.5 876.0Q1209 748 1209 557Q1209 371 1149.0 242.5Q1089 114 986.0 47.5Q883 -19 754 -19ZM662 222Q740 222 793.5 265.0Q847 308 874.5 384.0Q902 460 902 558Q902 656 874.5 731.0Q847 806 794.0 849.0Q741 892 662 892Q585 892 531.0 850.5Q477 809 449.0 734.5Q421 660 421 558Q421 457 449.5 381.5Q478 306 532.0 264.0Q586 222 662 222Z" fill="#F5F2EC" transform="translate(659.53 358.00) scale(0.0137 -0.0137)"/>
  <path d="M440 -22Q334 -22 249.5 15.5Q165 53 116.5 127.5Q68 202 68 313Q68 406 102.5 469.0Q137 532 196.5 570.0Q256 608 331.5 628.0Q407 648 490 656Q587 666 646.5 674.5Q706 683 733.5 701.5Q761 720 761 756V761Q761 809 741.0 842.0Q721 875 681.5 892.5Q642 910 586 910Q528 910 485.0 892.5Q442 875 415.0 846.0Q388 817 375 781L100 826Q129 924 196.0 992.0Q263 1060 362.5 1096.0Q462 1132 587 1132Q677 1132 762.0 1110.5Q847 1089 914.5 1044.0Q982 999 1021.5 926.5Q1061 854 1061 753V0H777V155H767Q740 103 695.0 63.5Q650 24 586.5 1.0Q523 -22 440 -22ZM525 189Q596 189 649.5 217.0Q703 245 733.0 293.0Q763 341 763 400V521Q750 511 723.0 503.0Q696 495 663.0 489.0Q630 483 598.0 478.0Q566 473 541 470Q486 462 444.0 444.0Q402 426 379.0 396.5Q356 367 356 321Q356 278 378.0 248.5Q400 219 438.0 204.0Q476 189 525 189Z" fill="#F5F2EC" transform="translate(677.18 358.00) scale(0.0137 -0.0137)"/>
  <path d="M428 1490V0H128V1490Z" fill="#F5F2EC" transform="translate(693.43 358.00) scale(0.0137 -0.0137)"/>
  <path d="M428 1490V0H128V1490Z" fill="#F5F2EC" transform="translate(701.02 358.00) scale(0.0137 -0.0137)"/>
  <path d="M628 -22Q459 -22 336.5 50.5Q214 123 147.5 252.5Q81 382 81 554Q81 728 147.5 857.5Q214 987 336.5 1059.5Q459 1132 628 1132Q727 1132 811.0 1106.0Q895 1080 960.0 1032.0Q1025 984 1067.0 915.0Q1109 846 1125 760L846 708Q837 752 818.0 786.5Q799 821 772.0 845.5Q745 870 709.5 883.0Q674 896 631 896Q551 896 496.5 853.0Q442 810 414.5 733.0Q387 656 387 555Q387 456 414.5 379.0Q442 302 496.5 258.0Q551 214 631 214Q674 214 710.0 227.5Q746 241 774.0 266.5Q802 292 821.0 328.0Q840 364 848 409L1127 358Q1111 269 1069.0 199.5Q1027 130 962.0 80.0Q897 30 812.5 4.0Q728 -22 628 -22Z" fill="#F5F2EC" transform="translate(715.24 358.00) scale(0.0137 -0.0137)"/>
  <path d="M628 -22Q460 -22 337.0 50.5Q214 123 147.5 252.5Q81 382 81 554Q81 728 147.5 857.5Q214 987 337.0 1059.5Q460 1132 628 1132Q797 1132 919.5 1059.5Q1042 987 1108.5 857.5Q1175 728 1175 554Q1175 382 1108.5 252.5Q1042 123 919.5 50.5Q797 -22 628 -22ZM628 214Q708 214 762.0 258.5Q816 303 843.0 380.5Q870 458 870 555Q870 654 843.0 731.0Q816 808 762.0 852.0Q708 896 628 896Q548 896 494.5 852.0Q441 808 414.0 731.0Q387 654 387 555Q387 458 414.0 380.5Q441 303 494.5 258.5Q548 214 628 214Z" fill="#F5F2EC" transform="translate(731.71 358.00) scale(0.0137 -0.0137)"/>
  <path d="M440 -22Q334 -22 249.5 15.5Q165 53 116.5 127.5Q68 202 68 313Q68 406 102.5 469.0Q137 532 196.5 570.0Q256 608 331.5 628.0Q407 648 490 656Q587 666 646.5 674.5Q706 683 733.5 701.5Q761 720 761 756V761Q761 809 741.0 842.0Q721 875 681.5 892.5Q642 910 586 910Q528 910 485.0 892.5Q442 875 415.0 846.0Q388 817 375 781L100 826Q129 924 196.0 992.0Q263 1060 362.5 1096.0Q462 1132 587 1132Q677 1132 762.0 1110.5Q847 1089 914.5 1044.0Q982 999 1021.5 926.5Q1061 854 1061 753V0H777V155H767Q740 103 695.0 63.5Q650 24 586.5 1.0Q523 -22 440 -22ZM525 189Q596 189 649.5 217.0Q703 245 733.0 293.0Q763 341 763 400V521Q750 511 723.0 503.0Q696 495 663.0 489.0Q630 483 598.0 478.0Q566 473 541 470Q486 462 444.0 444.0Q402 426 379.0 396.5Q356 367 356 321Q356 278 378.0 248.5Q400 219 438.0 204.0Q476 189 525 189Z" fill="#F5F2EC" transform="translate(748.89 358.00) scale(0.0137 -0.0137)"/>
  <path d="M628 -22Q459 -22 336.5 50.5Q214 123 147.5 252.5Q81 382 81 554Q81 728 147.5 857.5Q214 987 336.5 1059.5Q459 1132 628 1132Q727 1132 811.0 1106.0Q895 1080 960.0 1032.0Q1025 984 1067.0 915.0Q1109 846 1125 760L846 708Q837 752 818.0 786.5Q799 821 772.0 845.5Q745 870 709.5 883.0Q674 896 631 896Q551 896 496.5 853.0Q442 810 414.5 733.0Q387 656 387 555Q387 456 414.5 379.0Q442 302 496.5 258.0Q551 214 631 214Q674 214 710.0 227.5Q746 241 774.0 266.5Q802 292 821.0 328.0Q840 364 848 409L1127 358Q1111 269 1069.0 199.5Q1027 130 962.0 80.0Q897 30 812.5 4.0Q728 -22 628 -22Z" fill="#F5F2EC" transform="translate(765.14 358.00) scale(0.0137 -0.0137)"/>
  <path d="M428 647V0H128V1490H422V839H398Q442 979 531.5 1055.5Q621 1132 763 1132Q879 1132 965.5 1081.5Q1052 1031 1100.0 936.5Q1148 842 1148 711V0H847V659Q847 763 793.5 822.0Q740 881 645 881Q582 881 532.5 853.5Q483 826 455.5 774.0Q428 722 428 647Z" fill="#F5F2EC" transform="translate(781.62 358.00) scale(0.0137 -0.0137)"/>
  <path d="M633 -22Q462 -22 338.0 48.0Q214 118 147.5 247.0Q81 376 81 553Q81 726 147.0 856.0Q213 986 334.0 1059.0Q455 1132 618 1132Q728 1132 823.0 1097.0Q918 1062 990.0 991.5Q1062 921 1102.5 815.0Q1143 709 1143 565V481H204V669H996L856 619Q856 706 829.5 770.5Q803 835 750.5 870.5Q698 906 621 906Q543 906 488.5 870.0Q434 834 406.0 772.5Q378 711 378 632V499Q378 402 410.5 336.0Q443 270 501.5 237.0Q560 204 638 204Q691 204 734.0 219.0Q777 234 807.5 263.5Q838 293 854 336L1126 285Q1099 193 1032.0 123.5Q965 54 864.5 16.0Q764 -22 633 -22Z" fill="#F5F2EC" transform="translate(799.05 358.00) scale(0.0137 -0.0137)"/>
  <path d="M572 -22Q437 -22 333.0 16.5Q229 55 163.0 128.5Q97 202 78 306L357 354Q379 276 434.0 237.0Q489 198 581 198Q667 198 716.5 230.5Q766 263 766 313Q766 357 730.5 385.0Q695 413 622 428L429 468Q267 501 187.0 580.5Q107 660 107 785Q107 893 166.0 970.5Q225 1048 330.0 1090.0Q435 1132 577 1132Q709 1132 806.0 1095.5Q903 1059 963.0 992.0Q1023 925 1043 834L777 787Q760 844 711.5 880.5Q663 917 581 917Q507 917 457.0 886.0Q407 855 407 803Q407 761 439.5 732.0Q472 703 551 687L752 647Q914 614 993.0 539.5Q1072 465 1072 345Q1072 235 1008.0 152.5Q944 70 831.5 24.0Q719 -22 572 -22Z" fill="#F5F2EC" transform="translate(815.73 358.00) scale(0.0137 -0.0137)"/>
  <path d="M342 -19Q269 -19 219.0 30.5Q169 80 169 153Q169 226 219.0 275.5Q269 325 342 325Q415 325 465.0 275.5Q515 226 515 153Q515 80 465.0 30.5Q415 -19 342 -19Z" fill="#F5F2EC" transform="translate(831.41 358.00) scale(0.0137 -0.0137)"/>
  <line x1="200" y1="480" x2="1000" y2="480" stroke="#E5A11C" stroke-opacity="0.3" stroke-width="1"/>
  <path d="M783 -20Q592 -20 442.5 72.5Q293 165 207.5 336.5Q122 508 122 744Q122 981 207.5 1152.5Q293 1324 442.5 1417.0Q592 1510 783 1510Q896 1510 996.5 1477.0Q1097 1444 1177.0 1380.5Q1257 1317 1310.5 1226.5Q1364 1136 1384 1021H1194Q1178 1098 1139.5 1156.0Q1101 1214 1045.5 1254.0Q990 1294 923.0 1314.0Q856 1334 783 1334Q649 1334 541.0 1266.0Q433 1198 370.0 1066.5Q307 935 307 744Q307 554 370.5 422.5Q434 291 542.0 223.5Q650 156 783 156Q856 156 923.0 176.5Q990 197 1045.5 236.5Q1101 276 1139.5 334.5Q1178 393 1194 469H1384Q1365 355 1311.5 265.0Q1258 175 1178.0 111.0Q1098 47 997.5 13.5Q897 -20 783 -20Z" fill="#F5F2EC" fill-opacity="0.55" transform="translate(200.00 510.00) scale(0.0063 -0.0063)"/>
  <path d="M784 -20Q593 -20 443.5 72.5Q294 165 208.0 336.5Q122 508 122 744Q122 981 208.0 1152.5Q294 1324 443.5 1417.0Q593 1510 784 1510Q975 1510 1124.0 1417.0Q1273 1324 1358.5 1152.5Q1444 981 1444 744Q1444 508 1358.5 336.5Q1273 165 1124.0 72.5Q975 -20 784 -20ZM784 156Q917 156 1024.5 223.5Q1132 291 1195.5 422.5Q1259 554 1259 744Q1259 936 1195.5 1067.5Q1132 1199 1024.5 1266.5Q917 1334 784 1334Q650 1334 542.0 1266.0Q434 1198 370.5 1066.5Q307 935 307 744Q307 554 370.5 423.0Q434 292 542.0 224.0Q650 156 784 156Z" fill="#F5F2EC" fill-opacity="0.55" transform="translate(209.50 510.00) scale(0.0063 -0.0063)"/>
  <path d="M52 0 593 1490H813L1361 0H1161L845 884Q816 966 777.5 1088.5Q739 1211 684 1401H720Q666 1209 626.5 1084.5Q587 960 561 884L254 0ZM324 416V582H1089V416Z" fill="#F5F2EC" fill-opacity="0.55" transform="translate(219.44 510.00) scale(0.0063 -0.0063)"/>
  <path d="M783 -20Q592 -20 442.5 72.5Q293 165 207.5 336.5Q122 508 122 744Q122 981 207.5 1152.5Q293 1324 442.5 1417.0Q592 1510 783 1510Q896 1510 996.5 1477.0Q1097 1444 1177.0 1380.5Q1257 1317 1310.5 1226.5Q1364 1136 1384 1021H1194Q1178 1098 1139.5 1156.0Q1101 1214 1045.5 1254.0Q990 1294 923.0 1314.0Q856 1334 783 1334Q649 1334 541.0 1266.0Q433 1198 370.0 1066.5Q307 935 307 744Q307 554 370.5 422.5Q434 291 542.0 223.5Q650 156 783 156Q856 156 923.0 176.5Q990 197 1045.5 236.5Q1101 276 1139.5 334.5Q1178 393 1194 469H1384Q1365 355 1311.5 265.0Q1258 175 1178.0 111.0Q1098 47 997.5 13.5Q897 -20 783 -20Z" fill="#F5F2EC" fill-opacity="0.55" transform="translate(228.41 510.00) scale(0.0063 -0.0063)"/>
  <path d="M180 0V1490H370V846H1152V1490H1342V0H1152V678H370V0Z" fill="#F5F2EC" fill-opacity="0.55" transform="translate(237.90 510.00) scale(0.0063 -0.0063)"/>
  <path d="M180 0V1490H1088V1322H370V836H1039V668H370V168H1097V0Z" fill="#F5F2EC" fill-opacity="0.55" transform="translate(247.56 510.00) scale(0.0063 -0.0063)"/>
  <path d="M657 -26Q496 -26 377.5 26.0Q259 78 192.0 171.5Q125 265 116 390H311Q319 306 368.0 251.5Q417 197 493.5 170.5Q570 144 657 144Q758 144 838.5 177.0Q919 210 966.0 270.0Q1013 330 1013 409Q1013 481 972.5 526.0Q932 571 865.0 600.0Q798 629 718 651L538 702Q358 753 258.0 848.0Q158 943 158 1091Q158 1217 226.0 1311.5Q294 1406 410.0 1458.0Q526 1510 670 1510Q817 1510 930.0 1458.0Q1043 1406 1108.5 1316.5Q1174 1227 1178 1114H992Q979 1223 888.0 1282.5Q797 1342 664 1342Q568 1342 495.5 1310.5Q423 1279 383.0 1224.5Q343 1170 343 1100Q343 1022 391.5 974.5Q440 927 506.5 900.5Q573 874 627 859L776 818Q836 802 908.5 774.0Q981 746 1047.0 699.5Q1113 653 1155.5 581.5Q1198 510 1198 406Q1198 284 1134.5 186.0Q1071 88 950.0 31.0Q829 -26 657 -26Z" fill="#F5F2EC" fill-opacity="0.55" transform="translate(255.38 510.00) scale(0.0063 -0.0063)"/>
<path d="M628 -20Q475 -20 355.5 36.5Q236 93 166.5 192.0Q97 291 93 418H391Q394 360 426.5 315.5Q459 271 512.0 246.5Q565 222 628 222Q703 222 760.5 255.5Q818 289 851.0 349.0Q884 409 884 488Q884 567 850.5 628.5Q817 690 758.5 724.0Q700 758 623 758Q556 758 494.5 731.5Q433 705 399 660L125 708L196 1490H1098V1238H449L411 861H419Q459 915 537.5 950.0Q616 985 712 985Q813 985 898.5 949.0Q984 913 1047.0 847.5Q1110 782 1145.0 692.0Q1180 602 1180 495Q1180 345 1110.5 229.0Q1041 113 916.5 46.5Q792 -20 628 -20Z" fill="#F5F2EC" transform="translate(200.00 546.00) scale(0.0127 -0.0127)"/>
  <path d="M119 -395 207 225H507L323 -395Z" fill="#F5F2EC" transform="translate(216.17 546.00) scale(0.0127 -0.0127)"/>
  <path d="M124 0V220L652 715Q720 781 766.5 834.5Q813 888 837.5 939.5Q862 991 862 1051Q862 1118 832.0 1166.0Q802 1214 750.0 1240.0Q698 1266 631 1266Q562 1266 510.0 1238.0Q458 1210 430.0 1158.0Q402 1106 402 1033H110Q110 1178 176.5 1285.5Q243 1393 361.0 1451.5Q479 1510 633 1510Q791 1510 909.0 1453.5Q1027 1397 1092.5 1298.0Q1158 1199 1158 1070Q1158 987 1125.5 906.0Q1093 825 1009.5 724.5Q926 624 773 484L548 262V251H1178V0Z" fill="#F5F2EC" transform="translate(224.86 546.00) scale(0.0127 -0.0127)"/>
  <path d="M690 -20Q502 -20 369.0 70.5Q236 161 165.0 331.5Q94 502 94 744Q94 985 165.0 1156.5Q236 1328 369.0 1419.0Q502 1510 690 1510Q878 1510 1011.5 1418.5Q1145 1327 1216.0 1156.0Q1287 985 1287 744Q1287 502 1216.5 331.5Q1146 161 1012.5 70.5Q879 -20 690 -20ZM690 233Q782 233 845.5 293.0Q909 353 942.5 467.0Q976 581 976 744Q976 908 942.5 1023.0Q909 1138 845.5 1198.0Q782 1258 690 1258Q599 1258 535.0 1197.5Q471 1137 438.0 1022.5Q405 908 405 744Q405 581 438.0 467.0Q471 353 535.0 293.0Q599 233 690 233Z" fill="#F5F2EC" transform="translate(241.23 546.00) scale(0.0127 -0.0127)"/>
  <path d="M690 -20Q502 -20 369.0 70.5Q236 161 165.0 331.5Q94 502 94 744Q94 985 165.0 1156.5Q236 1328 369.0 1419.0Q502 1510 690 1510Q878 1510 1011.5 1418.5Q1145 1327 1216.0 1156.0Q1287 985 1287 744Q1287 502 1216.5 331.5Q1146 161 1012.5 70.5Q879 -20 690 -20ZM690 233Q782 233 845.5 293.0Q909 353 942.5 467.0Q976 581 976 744Q976 908 942.5 1023.0Q909 1138 845.5 1198.0Q782 1258 690 1258Q599 1258 535.0 1197.5Q471 1137 438.0 1022.5Q405 908 405 744Q405 581 438.0 467.0Q471 353 535.0 293.0Q599 233 690 233Z" fill="#F5F2EC" transform="translate(258.77 546.00) scale(0.0127 -0.0127)"/>
<path d="M783 -20Q592 -20 442.5 72.5Q293 165 207.5 336.5Q122 508 122 744Q122 981 207.5 1152.5Q293 1324 442.5 1417.0Q592 1510 783 1510Q896 1510 996.5 1477.0Q1097 1444 1177.0 1380.5Q1257 1317 1310.5 1226.5Q1364 1136 1384 1021H1194Q1178 1098 1139.5 1156.0Q1101 1214 1045.5 1254.0Q990 1294 923.0 1314.0Q856 1334 783 1334Q649 1334 541.0 1266.0Q433 1198 370.0 1066.5Q307 935 307 744Q307 554 370.5 422.5Q434 291 542.0 223.5Q650 156 783 156Q856 156 923.0 176.5Q990 197 1045.5 236.5Q1101 276 1139.5 334.5Q1178 393 1194 469H1384Q1365 355 1311.5 265.0Q1258 175 1178.0 111.0Q1098 47 997.5 13.5Q897 -20 783 -20Z" fill="#F5F2EC" fill-opacity="0.55" transform="translate(420.00 510.00) scale(0.0063 -0.0063)"/>
  <path d="M784 -20Q593 -20 443.5 72.5Q294 165 208.0 336.5Q122 508 122 744Q122 981 208.0 1152.5Q294 1324 443.5 1417.0Q593 1510 784 1510Q975 1510 1124.0 1417.0Q1273 1324 1358.5 1152.5Q1444 981 1444 744Q1444 508 1358.5 336.5Q1273 165 1124.0 72.5Q975 -20 784 -20ZM784 156Q917 156 1024.5 223.5Q1132 291 1195.5 422.5Q1259 554 1259 744Q1259 936 1195.5 1067.5Q1132 1199 1024.5 1266.5Q917 1334 784 1334Q650 1334 542.0 1266.0Q434 1198 370.5 1066.5Q307 935 307 744Q307 554 370.5 423.0Q434 292 542.0 224.0Q650 156 784 156Z" fill="#F5F2EC" fill-opacity="0.55" transform="translate(429.50 510.00) scale(0.0063 -0.0063)"/>
  <path d="M763 -24Q587 -24 455.5 45.0Q324 114 252.0 234.0Q180 354 180 507V1490H370V522Q370 415 417.5 331.5Q465 248 553.0 200.0Q641 152 763 152Q885 152 972.5 200.0Q1060 248 1107.0 331.5Q1154 415 1154 522V1490H1344V507Q1344 354 1272.0 234.0Q1200 114 1069.5 45.0Q939 -24 763 -24Z" fill="#F5F2EC" fill-opacity="0.55" transform="translate(439.44 510.00) scale(0.0063 -0.0063)"/>
  <path d="M180 0V1490H404L1010 537Q1034 500 1068.0 442.0Q1102 384 1141.5 311.0Q1181 238 1219 155H1192Q1183 241 1179.0 319.5Q1175 398 1174.0 464.0Q1173 530 1173 576V1490H1363V0H1137L597 848Q560 907 522.5 969.5Q485 1032 437.0 1117.5Q389 1203 318 1329H353Q358 1218 362.0 1124.0Q366 1030 368.5 960.0Q371 890 371 850V0Z" fill="#F5F2EC" fill-opacity="0.55" transform="translate(449.11 510.00) scale(0.0063 -0.0063)"/>
  <path d="M98 1322V1490H1224V1322H757V0H567V1322Z" fill="#F5F2EC" fill-opacity="0.55" transform="translate(458.90 510.00) scale(0.0063 -0.0063)"/>
  <path d="M180 0V1490H690Q864 1490 976.5 1430.5Q1089 1371 1143.5 1267.0Q1198 1163 1198 1030Q1198 897 1143.5 795.0Q1089 693 977.0 635.5Q865 578 691 578H286V747H682Q800 747 871.5 781.5Q943 816 976.0 879.5Q1009 943 1009 1030Q1009 1119 976.0 1184.5Q943 1250 871.0 1286.5Q799 1323 680 1323H370V0ZM1036 0 676 671H890L1256 0Z" fill="#F5F2EC" fill-opacity="0.55" transform="translate(467.30 510.00) scale(0.0063 -0.0063)"/>
  <path d="M370 1490V0H180V1490Z" fill="#F5F2EC" fill-opacity="0.55" transform="translate(475.66 510.00) scale(0.0063 -0.0063)"/>
  <path d="M180 0V1490H1088V1322H370V836H1039V668H370V168H1097V0Z" fill="#F5F2EC" fill-opacity="0.55" transform="translate(479.15 510.00) scale(0.0063 -0.0063)"/>
  <path d="M657 -26Q496 -26 377.5 26.0Q259 78 192.0 171.5Q125 265 116 390H311Q319 306 368.0 251.5Q417 197 493.5 170.5Q570 144 657 144Q758 144 838.5 177.0Q919 210 966.0 270.0Q1013 330 1013 409Q1013 481 972.5 526.0Q932 571 865.0 600.0Q798 629 718 651L538 702Q358 753 258.0 848.0Q158 943 158 1091Q158 1217 226.0 1311.5Q294 1406 410.0 1458.0Q526 1510 670 1510Q817 1510 930.0 1458.0Q1043 1406 1108.5 1316.5Q1174 1227 1178 1114H992Q979 1223 888.0 1282.5Q797 1342 664 1342Q568 1342 495.5 1310.5Q423 1279 383.0 1224.5Q343 1170 343 1100Q343 1022 391.5 974.5Q440 927 506.5 900.5Q573 874 627 859L776 818Q836 802 908.5 774.0Q981 746 1047.0 699.5Q1113 653 1155.5 581.5Q1198 510 1198 406Q1198 284 1134.5 186.0Q1071 88 950.0 31.0Q829 -26 657 -26Z" fill="#F5F2EC" fill-opacity="0.55" transform="translate(486.97 510.00) scale(0.0063 -0.0063)"/>
<path d="M101 265V506L724 1490H931V1154H808L409 523V511H1293V265ZM814 0V338L820 446V1490H1107V0Z" fill="#F5F2EC" transform="translate(420.00 546.00) scale(0.0127 -0.0127)"/>
  <path d="M177 0 797 1228V1238H75V1490H1116V1234L494 0Z" fill="#F5F2EC" transform="translate(437.58 546.00) scale(0.0127 -0.0127)"/>
<path d="M180 0V1490H370V168H1060V0Z" fill="#F5F2EC" fill-opacity="0.55" transform="translate(640.00 510.00) scale(0.0063 -0.0063)"/>
  <path d="M370 1490V0H180V1490Z" fill="#F5F2EC" fill-opacity="0.55" transform="translate(647.35 510.00) scale(0.0063 -0.0063)"/>
  <path d="M783 -20Q592 -20 442.5 72.5Q293 165 207.5 336.5Q122 508 122 744Q122 981 207.5 1152.5Q293 1324 442.5 1417.0Q592 1510 783 1510Q896 1510 996.5 1477.0Q1097 1444 1177.0 1380.5Q1257 1317 1310.5 1226.5Q1364 1136 1384 1021H1194Q1178 1098 1139.5 1156.0Q1101 1214 1045.5 1254.0Q990 1294 923.0 1314.0Q856 1334 783 1334Q649 1334 541.0 1266.0Q433 1198 370.0 1066.5Q307 935 307 744Q307 554 370.5 422.5Q434 291 542.0 223.5Q650 156 783 156Q856 156 923.0 176.5Q990 197 1045.5 236.5Q1101 276 1139.5 334.5Q1178 393 1194 469H1384Q1365 355 1311.5 265.0Q1258 175 1178.0 111.0Q1098 47 997.5 13.5Q897 -20 783 -20Z" fill="#F5F2EC" fill-opacity="0.55" transform="translate(650.84 510.00) scale(0.0063 -0.0063)"/>
  <path d="M180 0V1490H1088V1322H370V836H1039V668H370V168H1097V0Z" fill="#F5F2EC" fill-opacity="0.55" transform="translate(660.34 510.00) scale(0.0063 -0.0063)"/>
  <path d="M180 0V1490H404L1010 537Q1034 500 1068.0 442.0Q1102 384 1141.5 311.0Q1181 238 1219 155H1192Q1183 241 1179.0 319.5Q1175 398 1174.0 464.0Q1173 530 1173 576V1490H1363V0H1137L597 848Q560 907 522.5 969.5Q485 1032 437.0 1117.5Q389 1203 318 1329H353Q358 1218 362.0 1124.0Q366 1030 368.5 960.0Q371 890 371 850V0Z" fill="#F5F2EC" fill-opacity="0.55" transform="translate(668.15 510.00) scale(0.0063 -0.0063)"/>
  <path d="M783 -20Q592 -20 442.5 72.5Q293 165 207.5 336.5Q122 508 122 744Q122 981 207.5 1152.5Q293 1324 442.5 1417.0Q592 1510 783 1510Q896 1510 996.5 1477.0Q1097 1444 1177.0 1380.5Q1257 1317 1310.5 1226.5Q1364 1136 1384 1021H1194Q1178 1098 1139.5 1156.0Q1101 1214 1045.5 1254.0Q990 1294 923.0 1314.0Q856 1334 783 1334Q649 1334 541.0 1266.0Q433 1198 370.0 1066.5Q307 935 307 744Q307 554 370.5 422.5Q434 291 542.0 223.5Q650 156 783 156Q856 156 923.0 176.5Q990 197 1045.5 236.5Q1101 276 1139.5 334.5Q1178 393 1194 469H1384Q1365 355 1311.5 265.0Q1258 175 1178.0 111.0Q1098 47 997.5 13.5Q897 -20 783 -20Z" fill="#F5F2EC" fill-opacity="0.55" transform="translate(677.95 510.00) scale(0.0063 -0.0063)"/>
  <path d="M180 0V1490H1088V1322H370V836H1039V668H370V168H1097V0Z" fill="#F5F2EC" fill-opacity="0.55" transform="translate(687.44 510.00) scale(0.0063 -0.0063)"/>
  <path d="M657 -26Q496 -26 377.5 26.0Q259 78 192.0 171.5Q125 265 116 390H311Q319 306 368.0 251.5Q417 197 493.5 170.5Q570 144 657 144Q758 144 838.5 177.0Q919 210 966.0 270.0Q1013 330 1013 409Q1013 481 972.5 526.0Q932 571 865.0 600.0Q798 629 718 651L538 702Q358 753 258.0 848.0Q158 943 158 1091Q158 1217 226.0 1311.5Q294 1406 410.0 1458.0Q526 1510 670 1510Q817 1510 930.0 1458.0Q1043 1406 1108.5 1316.5Q1174 1227 1178 1114H992Q979 1223 888.0 1282.5Q797 1342 664 1342Q568 1342 495.5 1310.5Q423 1279 383.0 1224.5Q343 1170 343 1100Q343 1022 391.5 974.5Q440 927 506.5 900.5Q573 874 627 859L776 818Q836 802 908.5 774.0Q981 746 1047.0 699.5Q1113 653 1155.5 581.5Q1198 510 1198 406Q1198 284 1134.5 186.0Q1071 88 950.0 31.0Q829 -26 657 -26Z" fill="#F5F2EC" fill-opacity="0.55" transform="translate(695.26 510.00) scale(0.0063 -0.0063)"/>
  <path d="M180 0V1490H370V168H1060V0Z" fill="#F5F2EC" fill-opacity="0.55" transform="translate(707.25 510.00) scale(0.0063 -0.0063)"/>
  <path d="M784 -20Q593 -20 443.5 72.5Q294 165 208.0 336.5Q122 508 122 744Q122 981 208.0 1152.5Q294 1324 443.5 1417.0Q593 1510 784 1510Q975 1510 1124.0 1417.0Q1273 1324 1358.5 1152.5Q1444 981 1444 744Q1444 508 1358.5 336.5Q1273 165 1124.0 72.5Q975 -20 784 -20ZM784 156Q917 156 1024.5 223.5Q1132 291 1195.5 422.5Q1259 554 1259 744Q1259 936 1195.5 1067.5Q1132 1199 1024.5 1266.5Q917 1334 784 1334Q650 1334 542.0 1266.0Q434 1198 370.5 1066.5Q307 935 307 744Q307 554 370.5 423.0Q434 292 542.0 224.0Q650 156 784 156Z" fill="#F5F2EC" fill-opacity="0.55" transform="translate(714.60 510.00) scale(0.0063 -0.0063)"/>
  <path d="M789 -20Q590 -20 440.0 73.0Q290 166 206.0 337.5Q122 509 122 744Q122 981 206.0 1152.5Q290 1324 438.0 1417.0Q586 1510 777 1510Q895 1510 997.5 1475.0Q1100 1440 1181.0 1375.0Q1262 1310 1315.5 1220.5Q1369 1131 1389 1023H1193Q1170 1095 1132.0 1152.0Q1094 1209 1041.5 1250.0Q989 1291 923.0 1312.5Q857 1334 778 1334Q647 1334 540.0 1266.5Q433 1199 370.0 1067.5Q307 936 307 744Q307 554 370.5 423.0Q434 292 543.0 224.0Q652 156 789 156Q915 156 1011.0 209.5Q1107 263 1160.5 361.5Q1214 460 1214 594L1271 583H828V749H1400V586Q1400 401 1321.0 265.0Q1242 129 1104.5 54.5Q967 -20 789 -20Z" fill="#F5F2EC" fill-opacity="0.55" transform="translate(724.54 510.00) scale(0.0063 -0.0063)"/>
  <path d="M789 -20Q590 -20 440.0 73.0Q290 166 206.0 337.5Q122 509 122 744Q122 981 206.0 1152.5Q290 1324 438.0 1417.0Q586 1510 777 1510Q895 1510 997.5 1475.0Q1100 1440 1181.0 1375.0Q1262 1310 1315.5 1220.5Q1369 1131 1389 1023H1193Q1170 1095 1132.0 1152.0Q1094 1209 1041.5 1250.0Q989 1291 923.0 1312.5Q857 1334 778 1334Q647 1334 540.0 1266.5Q433 1199 370.0 1067.5Q307 936 307 744Q307 554 370.5 423.0Q434 292 543.0 224.0Q652 156 789 156Q915 156 1011.0 209.5Q1107 263 1160.5 361.5Q1214 460 1214 594L1271 583H828V749H1400V586Q1400 401 1321.0 265.0Q1242 129 1104.5 54.5Q967 -20 789 -20Z" fill="#F5F2EC" fill-opacity="0.55" transform="translate(734.24 510.00) scale(0.0063 -0.0063)"/>
  <path d="M180 0V1490H1088V1322H370V836H1039V668H370V168H1097V0Z" fill="#F5F2EC" fill-opacity="0.55" transform="translate(743.94 510.00) scale(0.0063 -0.0063)"/>
  <path d="M645 0H285V168H633Q815 168 934.5 237.5Q1054 307 1113.0 437.0Q1172 567 1172 748Q1172 927 1113.5 1055.5Q1055 1184 939.5 1253.0Q824 1322 651 1322H277V1490H664Q882 1490 1036.5 1401.0Q1191 1312 1273.5 1145.5Q1356 979 1356 748Q1356 515 1273.0 347.5Q1190 180 1031.0 90.0Q872 0 645 0ZM370 1490V0H180V1490Z" fill="#F5F2EC" fill-opacity="0.55" transform="translate(751.76 510.00) scale(0.0063 -0.0063)"/>
<path d="M749 1490V0H444V1221H434L93 979V1259L422 1490Z" fill="#F5F2EC" transform="translate(640.00 546.00) scale(0.0127 -0.0127)"/>
  <path d="M119 -395 207 225H507L323 -395Z" fill="#F5F2EC" transform="translate(651.21 546.00) scale(0.0127 -0.0127)"/>
  <path d="M666 -20Q499 -20 370.0 35.0Q241 90 167.5 185.0Q94 280 94 400Q94 493 136.5 571.5Q179 650 251.5 702.5Q324 755 415 770V779Q296 804 222.0 896.0Q148 988 148 1110Q148 1225 215.0 1315.5Q282 1406 399.0 1458.0Q516 1510 666 1510Q815 1510 932.5 1458.0Q1050 1406 1117.5 1315.5Q1185 1225 1185 1110Q1185 988 1110.0 896.0Q1035 804 919 779V770Q1008 755 1080.5 702.5Q1153 650 1196.5 571.5Q1240 493 1240 400Q1240 280 1166.0 185.0Q1092 90 962.5 35.0Q833 -20 666 -20ZM666 206Q743 206 800.0 233.5Q857 261 889.0 310.5Q921 360 921 424Q921 490 888.0 540.5Q855 591 797.5 620.5Q740 650 666 650Q592 650 534.5 621.0Q477 592 444.0 541.5Q411 491 411 424Q411 360 442.5 311.0Q474 262 532.0 234.0Q590 206 666 206ZM666 874Q730 874 779.5 900.0Q829 926 857.5 972.0Q886 1018 886 1077Q886 1137 858.0 1182.0Q830 1227 780.5 1252.0Q731 1277 666 1277Q601 1277 551.5 1252.0Q502 1227 474.0 1182.0Q446 1137 446 1077Q446 1018 474.0 972.0Q502 926 552.0 900.0Q602 874 666 874Z" fill="#F5F2EC" transform="translate(659.89 546.00) scale(0.0127 -0.0127)"/>
  <path d="M690 -20Q502 -20 369.0 70.5Q236 161 165.0 331.5Q94 502 94 744Q94 985 165.0 1156.5Q236 1328 369.0 1419.0Q502 1510 690 1510Q878 1510 1011.5 1418.5Q1145 1327 1216.0 1156.0Q1287 985 1287 744Q1287 502 1216.5 331.5Q1146 161 1012.5 70.5Q879 -20 690 -20ZM690 233Q782 233 845.5 293.0Q909 353 942.5 467.0Q976 581 976 744Q976 908 942.5 1023.0Q909 1138 845.5 1198.0Q782 1258 690 1258Q599 1258 535.0 1197.5Q471 1137 438.0 1022.5Q405 908 405 744Q405 581 438.0 467.0Q471 353 535.0 293.0Q599 233 690 233Z" fill="#F5F2EC" transform="translate(676.82 546.00) scale(0.0127 -0.0127)"/>
  <path d="M690 -20Q502 -20 369.0 70.5Q236 161 165.0 331.5Q94 502 94 744Q94 985 165.0 1156.5Q236 1328 369.0 1419.0Q502 1510 690 1510Q878 1510 1011.5 1418.5Q1145 1327 1216.0 1156.0Q1287 985 1287 744Q1287 502 1216.5 331.5Q1146 161 1012.5 70.5Q879 -20 690 -20ZM690 233Q782 233 845.5 293.0Q909 353 942.5 467.0Q976 581 976 744Q976 908 942.5 1023.0Q909 1138 845.5 1198.0Q782 1258 690 1258Q599 1258 535.0 1197.5Q471 1137 438.0 1022.5Q405 908 405 744Q405 581 438.0 467.0Q471 353 535.0 293.0Q599 233 690 233Z" fill="#F5F2EC" transform="translate(694.35 546.00) scale(0.0127 -0.0127)"/>
<path d="M180 0V1490H690Q864 1490 976.5 1426.5Q1089 1363 1143.5 1256.0Q1198 1149 1198 1016Q1198 883 1143.5 775.0Q1089 667 977.0 603.0Q865 539 691 539H330V706H682Q800 706 872.0 746.5Q944 787 976.5 857.5Q1009 928 1009 1016Q1009 1104 976.5 1173.5Q944 1243 871.5 1283.0Q799 1323 680 1323H370V0Z" fill="#F5F2EC" fill-opacity="0.55" transform="translate(860.00 510.00) scale(0.0063 -0.0063)"/>
  <path d="M52 0 593 1490H813L1361 0H1161L845 884Q816 966 777.5 1088.5Q739 1211 684 1401H720Q666 1209 626.5 1084.5Q587 960 561 884L254 0ZM324 416V582H1089V416Z" fill="#F5F2EC" fill-opacity="0.55" transform="translate(868.30 510.00) scale(0.0063 -0.0063)"/>
  <path d="M789 -20Q590 -20 440.0 73.0Q290 166 206.0 337.5Q122 509 122 744Q122 981 206.0 1152.5Q290 1324 438.0 1417.0Q586 1510 777 1510Q895 1510 997.5 1475.0Q1100 1440 1181.0 1375.0Q1262 1310 1315.5 1220.5Q1369 1131 1389 1023H1193Q1170 1095 1132.0 1152.0Q1094 1209 1041.5 1250.0Q989 1291 923.0 1312.5Q857 1334 778 1334Q647 1334 540.0 1266.5Q433 1199 370.0 1067.5Q307 936 307 744Q307 554 370.5 423.0Q434 292 543.0 224.0Q652 156 789 156Q915 156 1011.0 209.5Q1107 263 1160.5 361.5Q1214 460 1214 594L1271 583H828V749H1400V586Q1400 401 1321.0 265.0Q1242 129 1104.5 54.5Q967 -20 789 -20Z" fill="#F5F2EC" fill-opacity="0.55" transform="translate(877.27 510.00) scale(0.0063 -0.0063)"/>
  <path d="M180 0V1490H1088V1322H370V836H1039V668H370V168H1097V0Z" fill="#F5F2EC" fill-opacity="0.55" transform="translate(886.97 510.00) scale(0.0063 -0.0063)"/>
  <path d="M600 0 52 1490H252L567 606Q594 530 634.5 403.0Q675 276 729 90H692Q746 281 786.0 405.5Q826 530 852 606L1159 1490H1361L819 0Z" fill="#F5F2EC" fill-opacity="0.55" transform="translate(898.44 510.00) scale(0.0063 -0.0063)"/>
  <path d="M370 1490V0H180V1490Z" fill="#F5F2EC" fill-opacity="0.55" transform="translate(907.41 510.00) scale(0.0063 -0.0063)"/>
  <path d="M180 0V1490H1088V1322H370V836H1039V668H370V168H1097V0Z" fill="#F5F2EC" fill-opacity="0.55" transform="translate(910.90 510.00) scale(0.0063 -0.0063)"/>
  <path d="M458 0 52 1490H246L482 576Q501 503 518.0 427.5Q535 352 551.0 274.5Q567 197 581 115H558Q573 197 589.0 274.5Q605 352 623.0 427.5Q641 503 660 576L901 1490H1117L1356 576Q1376 503 1393.5 427.5Q1411 352 1428.0 274.5Q1445 197 1460 115H1434Q1449 197 1465.0 274.5Q1481 352 1499.0 427.5Q1517 503 1535 576L1770 1490H1966L1558 0H1337L1081 944Q1056 1036 1033.0 1144.5Q1010 1253 988 1395H1028Q1006 1261 985.0 1155.5Q964 1050 935 944L680 0Z" fill="#F5F2EC" fill-opacity="0.55" transform="translate(918.72 510.00) scale(0.0063 -0.0063)"/>
  <path d="M657 -26Q496 -26 377.5 26.0Q259 78 192.0 171.5Q125 265 116 390H311Q319 306 368.0 251.5Q417 197 493.5 170.5Q570 144 657 144Q758 144 838.5 177.0Q919 210 966.0 270.0Q1013 330 1013 409Q1013 481 972.5 526.0Q932 571 865.0 600.0Q798 629 718 651L538 702Q358 753 258.0 848.0Q158 943 158 1091Q158 1217 226.0 1311.5Q294 1406 410.0 1458.0Q526 1510 670 1510Q817 1510 930.0 1458.0Q1043 1406 1108.5 1316.5Q1174 1227 1178 1114H992Q979 1223 888.0 1282.5Q797 1342 664 1342Q568 1342 495.5 1310.5Q423 1279 383.0 1224.5Q343 1170 343 1100Q343 1022 391.5 974.5Q440 927 506.5 900.5Q573 874 627 859L776 818Q836 802 908.5 774.0Q981 746 1047.0 699.5Q1113 653 1155.5 581.5Q1198 510 1198 406Q1198 284 1134.5 186.0Q1071 88 950.0 31.0Q829 -26 657 -26Z" fill="#F5F2EC" fill-opacity="0.55" transform="translate(931.53 510.00) scale(0.0063 -0.0063)"/>
  <path d="M692 1560 212 -224H46L526 1560Z" fill="#F5F2EC" fill-opacity="0.55" transform="translate(943.52 510.00) scale(0.0063 -0.0063)"/>
  <path d="M458 0 52 1490H246L482 576Q501 503 518.0 427.5Q535 352 551.0 274.5Q567 197 581 115H558Q573 197 589.0 274.5Q605 352 623.0 427.5Q641 503 660 576L901 1490H1117L1356 576Q1376 503 1393.5 427.5Q1411 352 1428.0 274.5Q1445 197 1460 115H1434Q1449 197 1465.0 274.5Q1481 352 1499.0 427.5Q1517 503 1535 576L1770 1490H1966L1558 0H1337L1081 944Q1056 1036 1033.0 1144.5Q1010 1253 988 1395H1028Q1006 1261 985.0 1155.5Q964 1050 935 944L680 0Z" fill="#F5F2EC" fill-opacity="0.55" transform="translate(951.86 510.00) scale(0.0063 -0.0063)"/>
  <path d="M180 0V1490H1088V1322H370V836H1039V668H370V168H1097V0Z" fill="#F5F2EC" fill-opacity="0.55" transform="translate(964.67 510.00) scale(0.0063 -0.0063)"/>
  <path d="M180 0V1490H1088V1322H370V836H1039V668H370V168H1097V0Z" fill="#F5F2EC" fill-opacity="0.55" transform="translate(972.49 510.00) scale(0.0063 -0.0063)"/>
  <path d="M310 426V629Q361 699 411.5 763.0Q462 827 515.0 888.0Q568 949 624 1009L1069 1490H1318L682 808L672 809ZM180 0V1490H370V980L367 659L370 566V0ZM1094 0 555 758 673 906 1319 0Z" fill="#F5F2EC" fill-opacity="0.55" transform="translate(980.30 510.00) scale(0.0063 -0.0063)"/>
<path d="M749 1490V0H444V1221H434L93 979V1259L422 1490Z" fill="#F5F2EC" transform="translate(860.00 546.00) scale(0.0127 -0.0127)"/>
  <path d="M124 0V220L652 715Q720 781 766.5 834.5Q813 888 837.5 939.5Q862 991 862 1051Q862 1118 832.0 1166.0Q802 1214 750.0 1240.0Q698 1266 631 1266Q562 1266 510.0 1238.0Q458 1210 430.0 1158.0Q402 1106 402 1033H110Q110 1178 176.5 1285.5Q243 1393 361.0 1451.5Q479 1510 633 1510Q791 1510 909.0 1453.5Q1027 1397 1092.5 1298.0Q1158 1199 1158 1070Q1158 987 1125.5 906.0Q1093 825 1009.5 724.5Q926 624 773 484L548 262V251H1178V0Z" fill="#F5F2EC" transform="translate(871.21 546.00) scale(0.0127 -0.0127)"/>
  <path d="M119 -395 207 225H507L323 -395Z" fill="#F5F2EC" transform="translate(887.59 546.00) scale(0.0127 -0.0127)"/>
  <path d="M101 265V506L724 1490H931V1154H808L409 523V511H1293V265ZM814 0V338L820 446V1490H1107V0Z" fill="#F5F2EC" transform="translate(896.27 546.00) scale(0.0127 -0.0127)"/>
  <path d="M690 -20Q502 -20 369.0 70.5Q236 161 165.0 331.5Q94 502 94 744Q94 985 165.0 1156.5Q236 1328 369.0 1419.0Q502 1510 690 1510Q878 1510 1011.5 1418.5Q1145 1327 1216.0 1156.0Q1287 985 1287 744Q1287 502 1216.5 331.5Q1146 161 1012.5 70.5Q879 -20 690 -20ZM690 233Q782 233 845.5 293.0Q909 353 942.5 467.0Q976 581 976 744Q976 908 942.5 1023.0Q909 1138 845.5 1198.0Q782 1258 690 1258Q599 1258 535.0 1197.5Q471 1137 438.0 1022.5Q405 908 405 744Q405 581 438.0 467.0Q471 353 535.0 293.0Q599 233 690 233Z" fill="#F5F2EC" transform="translate(913.85 546.00) scale(0.0127 -0.0127)"/>
  <path d="M690 -20Q502 -20 369.0 70.5Q236 161 165.0 331.5Q94 502 94 744Q94 985 165.0 1156.5Q236 1328 369.0 1419.0Q502 1510 690 1510Q878 1510 1011.5 1418.5Q1145 1327 1216.0 1156.0Q1287 985 1287 744Q1287 502 1216.5 331.5Q1146 161 1012.5 70.5Q879 -20 690 -20ZM690 233Q782 233 845.5 293.0Q909 353 942.5 467.0Q976 581 976 744Q976 908 942.5 1023.0Q909 1138 845.5 1198.0Q782 1258 690 1258Q599 1258 535.0 1197.5Q471 1137 438.0 1022.5Q405 908 405 744Q405 581 438.0 467.0Q471 353 535.0 293.0Q599 233 690 233Z" fill="#F5F2EC" transform="translate(931.39 546.00) scale(0.0127 -0.0127)"/>
</svg>